<?xml version="1.0" encoding="utf-8"?>
<!-- Generator: Adobe Illustrator 21.1.0, SVG Export Plug-In . SVG Version: 6.00 Build 0)  -->
<svg version="1.1" id="Layer_1" xmlns="http://www.w3.org/2000/svg" xmlns:xlink="http://www.w3.org/1999/xlink" x="0px" y="0px"
	 width="720px" height="720px" viewBox="0 0 720 720" style="enable-background:new 0 0 720 720;" xml:space="preserve">
<style type="text/css">
	.st0{fill:#FFFFFF;}
</style>
<g>
	<path class="st0" d="M468.8,132.2H249.1c-29.9,0-58,11.7-79.4,33.1s-33.1,49.6-33.1,79.4v234.1c0,29.9,11.7,58,33.1,79.4
		s49.6,33.1,79.4,33.1h219.7c29.9,0,58-11.7,79.4-33.1s33.1-49.6,33.1-79.4V244.6c0-29.9-11.7-58-33.1-79.4S498.7,132.2,468.8,132.2
		z M359.8,504.3c-79.9,0-144.7-64.8-144.7-144.7S279.9,215,359.8,215s144.7,64.8,144.7,144.7S439.7,504.3,359.8,504.3z M506.8,246.9
		c-18.9,0-34.3-15.3-34.3-34.3s15.3-34.3,34.3-34.3c18.9,0,34.3,15.3,34.3,34.3S525.7,246.9,506.8,246.9z"/>
	<circle class="st0" cx="359" cy="359.8" r="94.8"/>
	<path class="st0" d="M564.2-0.7H155.8C69-0.7-1.4,70.1-1.4,157.4v405.3c0,87.3,70.4,158.1,157.3,158.1h408.3
		c86.9,0,157.3-70.8,157.3-158.1V157.3C721.4,70.1,651-0.7,564.2-0.7z M621.7,478.7c0,84.1-68.8,152.9-152.9,152.9H249.1
		c-84.1,0-152.9-68.8-152.9-152.9V244.6c0-84.1,68.8-152.9,152.9-152.9h219.7c84.1,0,152.9,68.8,152.9,152.9L621.7,478.7
		L621.7,478.7z"/>
</g>
</svg>
