<?xml version="1.0" encoding="utf-8"?>
<!-- Generator: Adobe Illustrator 20.1.0, SVG Export Plug-In . SVG Version: 6.00 Build 0)  -->
<svg version="1.1" id="Layer_1" xmlns="http://www.w3.org/2000/svg" xmlns:xlink="http://www.w3.org/1999/xlink" x="0px" y="0px"
	 width="612px" height="792px" viewBox="0 0 612 792" style="enable-background:new 0 0 612 792;" xml:space="preserve">
<style type="text/css">
	.st0{fill:#FFFFFF;}
</style>
<g>
	<polygon class="st0" points="540.6,119.5 482.2,192.5 297.3,45.6 	"/>
	<polygon class="st0" points="406.4,148.1 289.4,45.6 198.8,79.7 	"/>
	<polygon class="st0" points="194.9,88.9 335.6,136.4 228.1,187.7 	"/>
	<polygon class="st0" points="169.7,394.3 69.3,228.4 173.3,100.5 	"/>
	<polygon class="st0" points="180.2,274 221,191.6 183.9,93.5 	"/>
	<polygon class="st0" points="65.1,245.5 167.6,404.9 45,416.5 	"/>
	<polygon class="st0" points="568.1,659.9 503.3,575.1 297.3,746.1 	"/>
	<polygon class="st0" points="406.4,643.6 289.4,746.1 185.5,707 	"/>
	<polygon class="st0" points="179.2,702.8 335.6,655.2 222.5,601.3 	"/>
	<polygon class="st0" points="172.5,497.6 174.6,694.8 217.2,598.7 	"/>
	<polygon class="st0" points="167.6,416.5 168.4,479.5 45,428.1 	"/>
	<polygon class="st0" points="44.7,434.9 167.3,690.1 160.1,492 	"/>
</g>
</svg>
