<?xml version="1.0" encoding="utf-8"?>
<!-- Generator: Adobe Illustrator 21.1.0, SVG Export Plug-In . SVG Version: 6.00 Build 0)  -->
<svg version="1.1" id="Слой_1" xmlns="http://www.w3.org/2000/svg" xmlns:xlink="http://www.w3.org/1999/xlink" x="0px" y="0px"
	 width="512px" height="512px" viewBox="0 0 512 512" style="enable-background:new 0 0 512 512;" xml:space="preserve">
<style type="text/css">
	.st0{fill:#FFFFFF;}
	.st1{opacity:0.1;enable-background:new    ;}
</style>
<path class="st0" d="M0,256L0,256c0,141.4,114.6,256,256,256l0,0c141.4,0,256-114.6,256-256l0,0C512,114.6,397.4,0,256,0l0,0
	C114.6,0,0,114.6,0,256z M249.2,345.8c-0.2,0.1-0.5,0.2-0.7,0.2c-1,0-2,0.1-3.1,0.1c-36.7,0-73.4,0-110.1,0c-9.3,0-18.6,0-28-0.1
	c-0.3,0-0.6-0.1-0.8-0.3c-0.2-0.1-0.4-0.2-0.6-0.2c-0.4,0-0.7-0.2-0.9-0.5c-0.4-0.5-1-0.8-1.5-1.2l-0.1-0.1
	c-0.2-0.2-0.3-0.4-0.5-0.5c-0.1-0.1-0.2-0.3-0.3-0.5c-0.6-1.6-0.9-3.3-0.9-5.1c0-53.3,0-106.6,0-159.9c0-2.5-0.1-5,0.3-7.4
	c0-0.3,0.2-0.5,0.4-0.7c0.2-0.2,0.2-0.5,0.2-0.8l0,0c0.5-0.6,1.1-1.1,1.6-1.7l0.1-0.1c1.8-1,3.7-1.2,5.8-1.2c21.7,0.1,43.3,0,65,0
	c6.4,0,12.8,0.9,19,2.2c8.3,1.8,15.9,5.5,22.9,10.2c0.1,0.1,0.2,0.2,0.3,0.3c0.7,0.9,1.6,1.6,2.6,2.2c0.2,0.1,0.3,0.2,0.4,0.4
	c0.7,0.9,1.6,1.7,2.5,2.4l0.2,0.2c11.6,12.9,15.1,28.4,14.1,45.3c-0.1,1-0.7,2-0.5,3c0.2,0.9,0.2,1.7,0,2.6c-0.1,0.2-0.1,0.5,0,0.7
	c-0.4,0.1-0.5,0.4-0.5,0.7c-1.4,8.1-4.6,15.4-9.2,22.1l0,0c-0.1,0.2-0.2,0.4-0.4,0.6l0,0c-1.9,2.1-3.8,4.2-5.7,6.2
	c-0.4,0.4-0.8,0.8-1.3,1.1c-0.7,0.4-1.3,1-1.8,1.7l0,0c-3.7,2.2-7.2,4.8-11.2,6.3c-1.5,0.6-0.4,1.2,0,1.8c4.1,5.4,8.1,10.7,12.3,16
	c2.3,2.9,4.2,6.2,7.1,8.6c0,0.1,0.1,0.2,0.2,0.3c1.6,2.3,3,4.6,4.7,6.8c6.6,8.7,13.3,17.4,20,26.1
	C254.6,339,254.2,342.4,249.2,345.8z M410.2,298.6c-0.2,1.6-0.6,4.3-0.8,5.9c-1.3,4.7-2.7,9.4-5.1,13.7c-3.2,5.8-7.7,10.4-12.6,14.7
	c-0.1,0.1-0.2,0.1-0.2,0.2c-3.1,1.7-5.9,3.8-9.1,5.3c-11.2,5.3-23.1,7.5-35.4,7.6c-21.4,0.2-42.7,0.1-64.1,0.1
	c-3.3,0-6.6,0.3-9.7-0.8c-0.2-0.1-0.4-0.2-0.5-0.3c-0.2-0.2-0.3-0.3-0.5-0.5c-0.3-0.2-0.4-0.6-0.4-0.9s-0.2-0.6-0.4-0.8
	c-0.2-0.2-0.3-0.4-0.4-0.6c-0.3-1.2-0.4-2.4-0.4-3.7c0-55,0-110,0-165c0-5.1,2.4-7.5,7.5-7.5c20.8,0,41.6-0.1,62.3,0
	c15.4,0.1,30,3.1,41.8,14l0.5,0.5l0,0c0,0.3,0.2,0.5,0.5,0.5c9.2,10.9,12,23.7,11.6,37.6c-0.1,3.1-0.8,6.2-0.9,9.3
	c-0.1,0.7-0.3,1.8-0.5,2.5c-1.5,4.1-2.9,8.3-5.1,12.1l0,0c-0.6,0.6-1.1,1.2-1.5,1.9c-0.4,0.6-0.8,1.2-1.3,1.7
	c-1.1,0.9-0.7,1.6,1.1,2.4c1.8,0.8,3.6,1.8,5.2,2.9c11,7.5,16.1,18.4,18.1,31.2C410.4,287.9,410.2,293.2,410.2,298.6z"/>
<path class="st1" d="M219.7,207.4"/>
</svg>
