<?xml version="1.0" encoding="utf-8"?>
<!-- Generator: Adobe Illustrator 21.1.0, SVG Export Plug-In . SVG Version: 6.00 Build 0)  -->
<svg version="1.1" id="Layer_1" xmlns="http://www.w3.org/2000/svg" xmlns:xlink="http://www.w3.org/1999/xlink" x="0px" y="0px"
	 width="400px" height="400px" viewBox="0 0 400 400" style="enable-background:new 0 0 400 400;" xml:space="preserve">
<style type="text/css">
	.st0{fill:#FFFFFF;}
</style>
<g>
	<path class="st0" d="M384.4,90.9c2.8-15.7,2.7-31.8-6.9-44c-13.5-17.1-42.2-17.7-61.9-14.7c-16,2.5-70.2,26.3-88.6,83.6
		c32.7-2.5,49.8,2.4,46.6,38.3c-1.3,15-8.9,31.5-17.4,47.3c-9.8,18.2-28.2,54-52.3,28.2c-21.7-23.2-20.1-67.6-25-97.1
		c-2.8-16.6-5.7-37.2-11.1-54.3c-4.7-14.7-15.4-32.3-28.5-36.2c-14.1-4.1-31.5,2.3-41.8,8.4C64.8,69.5,40,96.8,11.8,119.3v2.1
		c5.6,5.3,7.1,14.1,15.3,15.3c19.4,2.9,37.9-18.1,50.8,3.7c7.9,13.3,10.3,27.9,15.3,42.3c6.7,19.1,11.9,39.9,17.4,61.9
		c9.3,37.2,20.7,92.9,52.9,106.5c16.4,7,41.1-2.4,53.6-9.8c33.9-20,60.2-49.1,82.8-78.6C351.6,192.7,380.1,113.5,384.4,90.9z"/>
</g>
</svg>
